<svg width="63" height="83" viewBox="0 0 63 83" fill="none" xmlns="http://www.w3.org/2000/svg">
<path d="M2.63608 69.0805C2.45702 69.0805 2.27795 69.0567 2.09889 68.9971C1.41844 68.7826 0.928997 68.1869 0.857372 67.4839C0.845434 67.341 0.487305 64.1002 0.487305 62.1462V12.5698C0.487305 5.63558 6.13381 0 13.0815 0H50.0763C57.024 0 62.6705 5.63558 62.6705 12.5698V47.5748C62.6705 54.509 57.024 60.1446 50.0763 60.1446H18.2028C14.0604 60.1446 10.0374 61.8484 7.17238 64.827L3.99697 68.4609C3.65078 68.8541 3.16134 69.0686 2.64802 69.0686L2.63608 69.0805ZM13.0815 3.57436C8.10352 3.57436 4.0686 7.61339 4.0686 12.5698V62.1462C4.0686 62.3845 4.0686 62.6466 4.08053 62.9207L4.52223 62.4203C8.12739 58.691 13.0935 56.5821 18.1908 56.5821H50.0763C55.0543 56.5821 59.0892 52.5431 59.0892 47.5867V12.5698C59.0892 7.60148 55.0423 3.57436 50.0763 3.57436H13.0815Z" fill="white"/>
<path d="M24.3746 72.7501L19.2414 69.4022L13.1532 72.7501V59.1318H24.3746V72.7501Z" fill="white"/>
<path d="M28.6959 82.5321H18.931C8.76009 82.5321 0.487305 75.2761 0.487305 66.3521V62.1463C0.487305 61.1574 1.28713 60.3591 2.27795 60.3591C3.26877 60.3591 4.0686 61.1574 4.0686 62.1463V66.3521C4.0686 73.3102 10.7417 78.9577 18.931 78.9577H28.6959C36.145 78.9577 42.3287 74.2872 43.4031 68.2227L34.3902 68.6159C33.3636 68.6516 32.5637 67.8891 32.5279 66.9121C32.4802 65.9232 33.2561 65.0892 34.235 65.0535L45.2893 64.5769C45.7906 64.553 46.2562 64.7318 46.6024 65.0773C46.9605 65.4109 47.1515 65.8756 47.1515 66.3641C47.1515 75.288 38.8788 82.544 28.7079 82.544L28.6959 82.5321Z" fill="white"/>
<path d="M11.3983 38.6984C10.4075 38.6984 9.60767 37.9001 9.60767 36.9112V18.4913C9.60767 13.9043 13.3441 10.1631 17.9521 10.1631H38.8907C39.8815 10.1631 40.6813 10.9614 40.6813 11.9503C40.6813 12.9392 39.8815 13.7374 38.8907 13.7374H17.9521C15.3258 13.7374 13.189 15.8702 13.189 18.4913V36.9112C13.189 37.9001 12.3891 38.6984 11.3983 38.6984Z" fill="white"/>
</svg>
